<svg width="50" height="50" viewBox="0 0 50 50" fill="none" xmlns="http://www.w3.org/2000/svg">
<mask id="mask0_26_137" style="mask-type:alpha" maskUnits="userSpaceOnUse" x="0" y="0" width="50" height="50">
<rect width="50" height="50" fill="#D9D9D9"/>
</mask>
<g mask="url(#mask0_26_137)">
<path d="M26.4844 34.8177C26.8837 34.4184 27.0833 33.9236 27.0833 33.3334C27.0833 32.7431 26.8837 32.2483 26.4844 31.849C26.0851 31.4497 25.5903 31.25 25 31.25C24.4097 31.25 23.9149 31.4497 23.5156 31.849C23.1163 32.2483 22.9167 32.7431 22.9167 33.3334C22.9167 33.9236 23.1163 34.4184 23.5156 34.8177C23.9149 35.217 24.4097 35.4167 25 35.4167C25.5903 35.4167 26.0851 35.217 26.4844 34.8177ZM22.9167 27.0834H27.0833V14.5834H22.9167V27.0834ZM25 48.5417L18.0208 41.6667H8.33334V31.9792L1.45834 25L8.33334 18.0209V8.33336H18.0208L25 1.45836L31.9792 8.33336H41.6667V18.0209L48.5417 25L41.6667 31.9792V41.6667H31.9792L25 48.5417ZM25 42.7084L30.2083 37.5H37.5V30.2084L42.7083 25L37.5 19.7917V12.5H30.2083L25 7.29169L19.7917 12.5H12.5V19.7917L7.29167 25L12.5 30.2084V37.5H19.7917L25 42.7084Z" fill="#E32322"/>
</g>
</svg>
