<svg width="24" height="24" viewBox="0 0 24 24" fill="none" xmlns="http://www.w3.org/2000/svg">
<mask id="mask0_27_455" style="mask-type:alpha" maskUnits="userSpaceOnUse" x="0" y="0" width="24" height="24">
<rect width="24" height="24" fill="#D9D9D9"/>
</mask>
<g mask="url(#mask0_27_455)">
<path d="M5.82505 13L7.70005 14.875C7.88338 15.075 7.97922 15.3125 7.98755 15.5875C7.99588 15.8625 7.90005 16.1 7.70005 16.3C7.50005 16.5 7.26672 16.6 7.00005 16.6C6.73338 16.6 6.50005 16.5 6.30005 16.3L2.70005 12.7C2.60005 12.6 2.52922 12.4917 2.48755 12.375C2.44588 12.2583 2.42505 12.1333 2.42505 12C2.42505 11.8667 2.44588 11.7417 2.48755 11.625C2.52922 11.5083 2.60005 11.4 2.70005 11.3L6.30005 7.69999C6.50005 7.49999 6.73338 7.39999 7.00005 7.39999C7.26672 7.39999 7.50005 7.49999 7.70005 7.69999C7.90005 7.89999 8.00005 8.13749 8.00005 8.41249C8.00005 8.68749 7.90005 8.92499 7.70005 9.12499L5.82505 11H18.175L16.3 9.12499C16.1167 8.92499 16.0209 8.68749 16.0125 8.41249C16.0042 8.13749 16.1 7.89999 16.3 7.69999C16.5 7.49999 16.7334 7.39999 17 7.39999C17.2667 7.39999 17.5 7.49999 17.7 7.69999L21.3 11.3C21.4 11.4 21.4709 11.5083 21.5125 11.625C21.5542 11.7417 21.575 11.8667 21.575 12C21.575 12.1333 21.5542 12.2583 21.5125 12.375C21.4709 12.4917 21.4 12.6 21.3 12.7L17.7 16.3C17.5 16.5 17.2667 16.6 17 16.6C16.7334 16.6 16.5 16.5 16.3 16.3C16.1 16.1 16 15.8625 16 15.5875C16 15.3125 16.1 15.075 16.3 14.875L18.175 13H5.82505Z" fill="white"/>
</g>
</svg>
