<svg width="17" height="11" viewBox="0 0 17 11" fill="none" xmlns="http://www.w3.org/2000/svg">
<path d="M16.25 5.79165C16.2083 5.88887 16.1458 5.97915 16.0625 6.06248L11.4167 10.7291C11.2639 10.8819 11.0694 10.9583 10.8333 10.9583C10.5972 10.9583 10.3958 10.8819 10.2292 10.7291C10.0625 10.5625 9.97917 10.3646 9.97917 10.1354C9.97917 9.90623 10.0625 9.70831 10.2292 9.54165L13.4792 6.31248L8.33333 6.31248C8.09722 6.31248 7.89931 6.23262 7.73958 6.0729C7.57986 5.91317 7.5 5.71526 7.5 5.47915C7.5 5.24303 7.57986 5.04512 7.73958 4.8854C7.89931 4.72567 8.09722 4.64581 8.33333 4.64581L13.4792 4.64581L10.2292 1.39581C10.0764 1.24303 10 1.05206 10 0.822895C10 0.593729 10.0833 0.395812 10.25 0.229146C10.4028 0.0763679 10.5972 -2.14441e-05 10.8333 -2.14544e-05C11.0694 -2.14647e-05 11.2639 0.0763678 11.4167 0.229146L16.0625 4.89581C16.1458 4.97915 16.2083 5.06942 16.25 5.16665C16.2917 5.26387 16.3125 5.36803 16.3125 5.47915C16.3125 5.59026 16.2917 5.69442 16.25 5.79165ZM5.59375 6.0729C5.43403 6.23262 5.23611 6.31248 5 6.31248L4.16667 6.31248C3.93056 6.31248 3.73264 6.23262 3.57292 6.0729C3.41319 5.91317 3.33333 5.71526 3.33333 5.47915C3.33333 5.24303 3.41319 5.04512 3.57292 4.8854C3.73264 4.72567 3.93056 4.64581 4.16667 4.64581L5 4.64581C5.23611 4.64581 5.43403 4.72567 5.59375 4.8854C5.75347 5.04512 5.83333 5.24303 5.83333 5.47915C5.83333 5.71526 5.75347 5.91317 5.59375 6.0729ZM1.42708 6.0729C1.26736 6.23262 1.06944 6.31248 0.833333 6.31248C0.597222 6.31248 0.399305 6.23262 0.239583 6.0729C0.0798609 5.91317 -2.29181e-07 5.71526 -2.39502e-07 5.47915C-2.49823e-07 5.24303 0.0798608 5.04512 0.239583 4.8854C0.399305 4.72567 0.597222 4.64581 0.833333 4.64581C1.06944 4.64581 1.26736 4.72567 1.42708 4.8854C1.58681 5.04512 1.66667 5.24303 1.66667 5.47915C1.66667 5.71526 1.58681 5.91317 1.42708 6.0729Z" fill="#DBC1F8"/>
</svg>
