<svg width="20" height="20" viewBox="0 0 20 20" fill="none" xmlns="http://www.w3.org/2000/svg">
<mask id="mask0_27_598" style="mask-type:alpha" maskUnits="userSpaceOnUse" x="0" y="0" width="20" height="20">
<rect width="20" height="20" fill="#D9D9D9"/>
</mask>
<g mask="url(#mask0_27_598)">
<path d="M10.5937 13.9271C10.7535 13.7674 10.8333 13.5695 10.8333 13.3334C10.8333 13.0973 10.7535 12.8993 10.5937 12.7396C10.434 12.5799 10.2361 12.5 10 12.5C9.76388 12.5 9.56597 12.5799 9.40625 12.7396C9.24652 12.8993 9.16666 13.0973 9.16666 13.3334C9.16666 13.5695 9.24652 13.7674 9.40625 13.9271C9.56597 14.0868 9.76388 14.1667 10 14.1667C10.2361 14.1667 10.434 14.0868 10.5937 13.9271ZM9.16666 10.8334H10.8333V5.83337H9.16666V10.8334ZM10 19.4167L7.20833 16.6667H3.33333V12.7917L0.583328 10L3.33333 7.20837V3.33337H7.20833L10 0.583374L12.7917 3.33337H16.6667V7.20837L19.4167 10L16.6667 12.7917V16.6667H12.7917L10 19.4167ZM10 17.0834L12.0833 15H15V12.0834L17.0833 10L15 7.91671V5.00004H12.0833L10 2.91671L7.91666 5.00004H5V7.91671L2.91666 10L5 12.0834V15H7.91666L10 17.0834Z" fill="#DBC1F8"/>
</g>
</svg>
